<svg id="Discussion_Board" data-name="Discussion Board" xmlns="http://www.w3.org/2000/svg" width="772" height="523" viewBox="0 0 32 32">
  <path id="Path_6" data-name="Path 6" d="M26,32H6a6,6,0,0,1-6-6V6A6,6,0,0,1,6,0H26a6,6,0,0,1,6,6V26A6,6,0,0,1,26,32Z" fill="#ffe6e2"/>
  <path id="Path_7" data-name="Path 7" d="M11,12.167v-3a1.765,1.765,0,0,1,.067-.5h-1.9A1.172,1.172,0,0,0,8,9.833v3A1.173,1.173,0,0,0,9.167,14h.247l.853,1.133a.515.515,0,0,0,.38.2h.02a.473.473,0,0,0,.373-.173l1-1.14A2.19,2.19,0,0,1,11,12.167Z" fill="#ffa8a7"/>
  <path id="Path_8" data-name="Path 8" d="M22.833,8.667h-1.9a1.76,1.76,0,0,1,.067.5v3a2.189,2.189,0,0,1-1.04,1.853l1,1.14a.475.475,0,0,0,.373.173h.02a.515.515,0,0,0,.38-.2L22.58,14h.253A1.173,1.173,0,0,0,24,12.833v-3a1.172,1.172,0,0,0-1.167-1.166Z" fill="#ffa8a7"/>
  <path id="Path_9" data-name="Path 9" d="M16,14.667h-.019a.5.5,0,0,1-.381-.2l-.85-1.133H13.167A1.168,1.168,0,0,1,12,12.167v-3A1.168,1.168,0,0,1,13.167,8h5.667A1.167,1.167,0,0,1,20,9.167v3a1.168,1.168,0,0,1-1.167,1.167h-1.44L16.376,14.5a.5.5,0,0,1-.376.171Z" fill="#ffa8a7"/>
  <g id="Group_2" data-name="Group 2">
    <circle id="Ellipse_3" data-name="Ellipse 3" cx="1.333" cy="1.333" r="1.333" transform="translate(9.334 16.667)" fill="#e62522"/>
    <path id="Path_10" data-name="Path 10" d="M12.447,20.267A2.8,2.8,0,0,0,11.334,22.5v.167H8.5a.5.5,0,0,1-.5-.5v-.333A1.832,1.832,0,0,1,9.833,20H11.5a1.821,1.821,0,0,1,.947.267Z" fill="#e62522"/>
    <circle id="Ellipse_4" data-name="Ellipse 4" cx="1.333" cy="1.333" r="1.333" transform="translate(20 16.667)" fill="#e62522"/>
    <path id="Path_11" data-name="Path 11" d="M24,21.833v.333a.5.5,0,0,1-.5.5H20.667V22.5a2.793,2.793,0,0,0-1.113-2.233A1.814,1.814,0,0,1,20.5,20h1.667A1.832,1.832,0,0,1,24,21.833Z" fill="#e62522"/>
    <circle id="Ellipse_5" data-name="Ellipse 5" cx="2" cy="2" r="2" transform="translate(14 15.667)" fill="#e62522"/>
    <path id="Path_12" data-name="Path 12" d="M17.833,20.667H14.166A1.835,1.835,0,0,0,12.333,22.5v1a.5.5,0,0,0,.5.5h6.333a.5.5,0,0,0,.5-.5v-1A1.834,1.834,0,0,0,17.833,20.667Z" fill="#e62522"/>
  </g>
</svg>
