<svg id="Education" xmlns="http://www.w3.org/2000/svg" width="772" height="523" viewBox="0 0 32 32">
  <path id="Path_13" data-name="Path 13" d="M26,32H6a6,6,0,0,1-6-6V6A6,6,0,0,1,6,0H26a6,6,0,0,1,6,6V26A6,6,0,0,1,26,32Z" fill="#ffe6e2"/>
  <path id="Path_14" data-name="Path 14" d="M19.333,16a6.6,6.6,0,0,1-3.473-1.067,2.519,2.519,0,0,1-1.193-2.14v-.68l-.24-.107a1.832,1.832,0,0,1,0-3.353L15.907,8A6.011,6.011,0,0,0,10,14a2.223,2.223,0,0,1-.34,1.173L8.107,17.64A.641.641,0,0,0,8,18a.661.661,0,0,0,.667.667H10v2A1.337,1.337,0,0,0,11.333,22a1.156,1.156,0,0,0,.393-.06l1.607-.493v2.22a.33.33,0,0,0,.333.333h6A.331.331,0,0,0,20,23.666V20.313a4.973,4.973,0,0,1,.907-2.867,5.88,5.88,0,0,0,.907-1.993A6.092,6.092,0,0,1,19.333,16Z" fill="#e62522"/>
  <path id="Path_15" data-name="Path 15" d="M19.333,12.664a.5.5,0,0,1-.2-.042l-4.167-1.833a.5.5,0,0,1,0-.916L19.132,8.04a.5.5,0,0,1,.4,0L23.7,9.873a.5.5,0,0,1,0,.916l-4.167,1.833A.5.5,0,0,1,19.333,12.664Z" fill="#ffa8a7"/>
  <path id="Path_16" data-name="Path 16" d="M19.938,13.537a1.5,1.5,0,0,1-1.206,0L16,12.337V12.8a1.173,1.173,0,0,0,.554,1,5.318,5.318,0,0,0,2.779.874,5.327,5.327,0,0,0,2.779-.874,1.17,1.17,0,0,0,.554-1v-.459Z" fill="#ffa8a7"/>
</svg>
