<svg id="Meeting" xmlns="http://www.w3.org/2000/svg" width="772" height="523" viewBox="0 0 32 32">
  <path id="Path_17" data-name="Path 17" d="M26,32H6a6,6,0,0,1-6-6V6A6,6,0,0,1,6,0H26a6,6,0,0,1,6,6V26A6,6,0,0,1,26,32Z" fill="#ffe6e2"/>
  <path id="Path_18" data-name="Path 18" d="M21.5,8h-11a.5.5,0,0,0-.5.5v5.667A1.832,1.832,0,0,0,11.833,16h1.673a3,3,0,0,1,4.986,0h1.673A1.833,1.833,0,0,0,22,14.167V8.5A.5.5,0,0,0,21.5,8ZM19,12.167a.5.5,0,0,1-.309.462.493.493,0,0,1-.191.038.5.5,0,0,1-.354-.146L17.622,12l-.95.871a.5.5,0,0,1-.587.067l-.835-.477-1.4,1.4a.5.5,0,1,1-.707-.707l1.667-1.667a.5.5,0,0,1,.6-.081l.849.485.651-.6-.434-.434A.5.5,0,0,1,16.833,10H18.5a.5.5,0,0,1,.5.5Z" fill="#ffa8a7"/>
  <g id="Group_3" data-name="Group 3">
    <circle id="Ellipse_6" data-name="Ellipse 6" cx="1.333" cy="1.333" r="1.333" transform="translate(9.334 16.667)" fill="#e62522"/>
    <path id="Path_19" data-name="Path 19" d="M12.447,20.267A2.8,2.8,0,0,0,11.334,22.5v.167H8.5a.5.5,0,0,1-.5-.5v-.333A1.832,1.832,0,0,1,9.833,20H11.5a1.821,1.821,0,0,1,.947.267Z" fill="#e62522"/>
    <circle id="Ellipse_7" data-name="Ellipse 7" cx="1.333" cy="1.333" r="1.333" transform="translate(20 16.667)" fill="#e62522"/>
    <path id="Path_20" data-name="Path 20" d="M24,21.833v.333a.5.5,0,0,1-.5.5H20.667V22.5a2.793,2.793,0,0,0-1.113-2.233A1.814,1.814,0,0,1,20.5,20h1.667A1.832,1.832,0,0,1,24,21.833Z" fill="#e62522"/>
    <circle id="Ellipse_8" data-name="Ellipse 8" cx="2" cy="2" r="2" transform="translate(14 15.667)" fill="#e62522"/>
    <path id="Path_21" data-name="Path 21" d="M17.833,20.667H14.166A1.835,1.835,0,0,0,12.333,22.5v1a.5.5,0,0,0,.5.5h6.333a.5.5,0,0,0,.5-.5v-1A1.834,1.834,0,0,0,17.833,20.667Z" fill="#e62522"/>
  </g>
  <path id="Path_22" data-name="Path 22" d="M22.833,9H9.167a.5.5,0,0,1,0-1H22.834a.5.5,0,1,1,0,1Z" fill="#ffa8a7"/>
</svg>
