<svg id="News_Announcements" data-name="News &amp; Announcements" xmlns="http://www.w3.org/2000/svg" width="772" height="523" viewBox="0 0 32 32">
  <path id="Path_29" data-name="Path 29" d="M26,32H6a6,6,0,0,1-6-6V6A6,6,0,0,1,6,0H26a6,6,0,0,1,6,6V26A6,6,0,0,1,26,32Z" fill="#ffe6e2"/>
  <path id="Path_30" data-name="Path 30" d="M18.569,24.1a2.77,2.77,0,0,1-.9-1.766A.334.334,0,0,0,17.333,22h-2.68a.335.335,0,0,0-.333.335,2.713,2.713,0,0,1-.889,1.762.334.334,0,0,0,.236.569h4.667a.332.332,0,0,0,.235-.568Z" fill="#e62522"/>
  <path id="Path_31" data-name="Path 31" d="M22.833,11.333H9.167A1.168,1.168,0,0,0,8,12.5v9a1.168,1.168,0,0,0,1.167,1.167H22.834A1.168,1.168,0,0,0,24,21.5v-9A1.17,1.17,0,0,0,22.833,11.333ZM22.667,20H9.333V12.667H22.666V20Z" fill="#e62522"/>
  <g id="Group_6" data-name="Group 6">
    <path id="Path_32" data-name="Path 32" d="M17.333,18h-.5a.5.5,0,0,1-.5-.5v-3a.5.5,0,0,1,.5-.5h.5a2,2,0,0,1,0,4Zm0-3v2a1,1,0,0,0,0-2Z" fill="#ffa8a7"/>
    <path id="Path_33" data-name="Path 33" d="M14.833,18a.5.5,0,0,1-.5-.5V15.333a.333.333,0,1,0-.666,0V17.5a.5.5,0,0,1-1,0V15.333a1.333,1.333,0,1,1,2.666,0V17.5A.5.5,0,0,1,14.833,18Z" fill="#ffa8a7"/>
    <path id="Path_34" data-name="Path 34" d="M14.833,17H13.166a.5.5,0,1,1,0-1h1.667a.5.5,0,0,1,0,1Z" fill="#ffa8a7"/>
  </g>
</svg>
