<svg id="Research_on_Publications" data-name="Research on Publications" xmlns="http://www.w3.org/2000/svg" width="772" height="523" viewBox="0 0 32 32">
  <path id="Path_35" data-name="Path 35" d="M26,32H6a6,6,0,0,1-6-6V6A6,6,0,0,1,6,0H26a6,6,0,0,1,6,6V26A6,6,0,0,1,26,32Z" fill="#ffe6e2"/>
  <g id="Group_7" data-name="Group 7">
    <circle id="Ellipse_10" data-name="Ellipse 10" cx="4" cy="4" r="4" transform="translate(14 12)" fill="#e62522"/>
    <path id="Path_36" data-name="Path 36" d="M23.333,22a.663.663,0,0,1-.471-.195l-3.027-3.027a.667.667,0,0,1,.943-.943l3.027,3.027A.667.667,0,0,1,23.333,22Z" fill="#e62522"/>
    <path id="Path_37" data-name="Path 37" d="M19.5,10H8.667a.667.667,0,1,1,0-1.333H19.5A.667.667,0,1,1,19.5,10Z" fill="#e62522"/>
    <path id="Path_38" data-name="Path 38" d="M19.5,23.334H8.667a.667.667,0,1,1,0-1.334H19.5a.667.667,0,0,1,0,1.334Z" fill="#e62522"/>
  </g>
  <path id="Path_39" data-name="Path 39" d="M13.5,13.334H8.667a.667.667,0,1,1,0-1.334H13.5a.667.667,0,0,1,0,1.334Z" fill="#ffa8a7"/>
  <path id="Path_40" data-name="Path 40" d="M13.5,20H8.667a.667.667,0,1,1,0-1.333H13.5A.667.667,0,1,1,13.5,20Z" fill="#ffa8a7"/>
  <path id="Path_41" data-name="Path 41" d="M12.167,16.667h-3.5a.667.667,0,0,1,0-1.334h3.5a.667.667,0,0,1,0,1.334Z" fill="#e62522"/>
</svg>
